<?xml version="1.0" standalone="no"?><!DOCTYPE svg PUBLIC "-//W3C//DTD SVG 1.1//EN" "http://www.w3.org/Graphics/SVG/1.1/DTD/svg11.dtd"><svg t="1622818837167" class="icon" viewBox="0 0 1024 1024" version="1.1" xmlns="http://www.w3.org/2000/svg" p-id="871" xmlns:xlink="http://www.w3.org/1999/xlink" width="200" height="200"><defs><style type="text/css"></style></defs><path d="M512 26.843429a58.514286 58.514286 0 0 1 0 117.028571A368.128 368.128 0 1 0 880.128 512a58.514286 58.514286 0 1 1 117.028571 0A485.156571 485.156571 0 1 1 512 26.843429zM981.357714 0h1.901715l3.145142 0.292571-5.12-0.292571a42.861714 42.861714 0 0 1 34.962286 18.066286l-4.754286-5.558857A42.788571 42.788571 0 0 1 1024 42.642286v256a42.642286 42.642286 0 1 1-85.357714 0V145.627429L659.017143 425.252571c13.165714 22.308571 21.430857 47.762286 23.259428 75.044572l0.365715 11.702857a170.642286 170.642286 0 1 1-83.968-147.017143l279.625143-279.698286H725.357714a42.642286 42.642286 0 0 1 0-85.284571h256z" fill="#1296db" p-id="872"></path></svg>